<svg viewBox="0 0 400 300" xmlns="http://www.w3.org/2000/svg"><path d="m182.39 195.65h-.14c-1.88-.52-52.87-30.12-58.68-33.49a.51.51 0 0 1 0-.9l22.79-12.26a.52.52 0 0 1 .7.21.51.51 0 0 1 -.21.7l-22 11.76c16.22 9.42 56 32.4 57.64 32.92a.52.52 0 0 1 -.14 1z" fill="#d1d3d4"/><path d="m219.93 192.62a.51.51 0 0 1 -.27-1c2.24-1.43 79.52-42.21 82.81-43.95a.52.52 0 0 1 .7.22.51.51 0 0 1 -.22.69c-.8.43-80.53 42.51-82.74 43.91a.57.57 0 0 1 -.28.13z" fill="#d1d3d4"/><path d="m302.71 171.92-39.11-22.57v-10.49l39.11 22.57z" fill="#fff"/><path d="m302.71 172.42a.54.54 0 0 1 -.25-.06l-39.11-22.58a.5.5 0 0 1 -.25-.43v-10.49a.52.52 0 0 1 .25-.44.5.5 0 0 1 .5 0l39.15 22.58a.48.48 0 0 1 .25.43v10.49a.5.5 0 0 1 -.25.44.54.54 0 0 1 -.29.06zm-38.61-23.36 38.11 22v-9.34l-38.11-22z" fill="#231f20"/><path d="m341.82 149.38-39.11 22.51v-10.49l39.11-22.52z" fill="#fff"/><path d="m302.71 172.39a.45.45 0 0 1 -.25-.07.5.5 0 0 1 -.25-.43v-10.49a.52.52 0 0 1 .25-.44l39.11-22.51a.5.5 0 0 1 .5 0 .5.5 0 0 1 .25.43v10.5a.5.5 0 0 1 -.25.43l-39.07 22.51a.45.45 0 0 1 -.29.07zm.5-10.7v9.31l38.11-21.94v-9.34z" fill="#231f20"/><path d="m302.71 161.44-39.11-22.58 39.11-22.58 39.11 22.58z" fill="#fff"/><path d="m302.71 161.94a.55.55 0 0 1 -.25-.07l-39.11-22.58a.5.5 0 0 1 -.25-.43.52.52 0 0 1 .25-.44l39.11-22.57a.5.5 0 0 1 .5 0l39.11 22.57a.52.52 0 0 1 .25.44.5.5 0 0 1 -.25.43l-39.07 22.58a.55.55 0 0 1 -.29.07zm-38.11-23.08 38.11 22 38.11-22-38.11-22z" fill="#231f20"/><path d="m302.71 156.05a.48.48 0 0 1 -.26-.07l-28.89-16.68a.51.51 0 0 1 0-.89l28.89-16.68a.53.53 0 0 1 .52 0l28.89 16.68a.51.51 0 0 1 0 .89l-28.86 16.7a.48.48 0 0 1 -.29.05zm-27.86-17.19 27.86 16.08 27.86-16.08-27.86-16.09z" fill="#d1d3d4"/><path d="m154.68 243.17a.48.48 0 0 1 -.26-.07l-66.08-39.59a.52.52 0 0 1 .53-.89l65.83 39.44 21.07-11.06a.52.52 0 0 1 .7.21.52.52 0 0 1 -.22.7l-21.33 11.25a.5.5 0 0 1 -.24.01z" fill="#d1d3d4"/><path d="m226.24 207a.52.52 0 0 1 -.24-1l43.15-22.74a.5.5 0 0 1 .49 0l41.36 22.79a.51.51 0 1 1 -.5.9l-41.14-22.6-42.88 22.65a.53.53 0 0 1 -.24 0z" fill="#d1d3d4"/><ellipse cx="310.78" cy="206.5" fill="#fff" rx="7.06" ry="4.07"/><path d="m310.78 211.08a10.7 10.7 0 0 1 -5.25-1.25 3.55 3.55 0 0 1 0-6.66 11.63 11.63 0 0 1 10.5 0 3.55 3.55 0 0 1 0 6.66 10.7 10.7 0 0 1 -5.25 1.25zm0-8.14a9.59 9.59 0 0 0 -4.73 1.13 2.54 2.54 0 0 0 0 4.87 10.51 10.51 0 0 0 9.46 0 2.54 2.54 0 0 0 0-4.87 9.59 9.59 0 0 0 -4.73-1.13z" fill="#d1d3d4"/><ellipse cx="148.94" cy="148.18" fill="#fff" rx="7.06" ry="4.07"/><path d="m148.94 152.76a10.64 10.64 0 0 1 -5.24-1.26 3.54 3.54 0 0 1 0-6.65 11.61 11.61 0 0 1 10.49 0 3.54 3.54 0 0 1 0 6.65 10.68 10.68 0 0 1 -5.25 1.26zm0-8.15a9.73 9.73 0 0 0 -4.73 1.13 2.54 2.54 0 0 0 0 4.87 10.46 10.46 0 0 0 9.47 0 2.54 2.54 0 0 0 0-4.87 9.74 9.74 0 0 0 -4.74-1.13z" fill="#d1d3d4"/><path d="m92.04 224.2-33.86-19.54v-9.09l33.86 19.54z" fill="#fff"/><path d="m92 224.7a.52.52 0 0 1 -.25-.07l-33.82-19.54a.52.52 0 0 1 -.25-.43v-9.09a.5.5 0 0 1 .25-.43.5.5 0 0 1 .5 0l33.86 19.54a.5.5 0 0 1 .25.43v9.09a.5.5 0 0 1 -.25.43.59.59 0 0 1 -.29.07zm-33.32-20.33 32.86 19v-7.97l-32.86-19z" fill="#231f20"/><path d="m125.89 204.68-33.85 19.49v-9.09l33.85-19.49z" fill="#fff"/><path d="m92 224.67a.43.43 0 0 1 -.25-.07.48.48 0 0 1 -.25-.43v-9.09a.5.5 0 0 1 .25-.43l33.85-19.49a.5.5 0 0 1 .5 0 .48.48 0 0 1 .25.43v9.09a.48.48 0 0 1 -.25.43l-33.81 19.49a.47.47 0 0 1 -.29.07zm.5-9.3v7.93l32.85-18.91v-7.93z" fill="#231f20"/><path d="m92.04 215.12-33.86-19.55 33.86-19.54 33.85 19.54z" fill="#231f20"/><path d="m92 215.62a.52.52 0 0 1 -.25-.07l-33.82-19.55a.49.49 0 0 1 -.25-.43.5.5 0 0 1 .25-.43l33.86-19.55a.5.5 0 0 1 .5 0l33.85 19.55a.48.48 0 0 1 .25.43.47.47 0 0 1 -.25.43l-33.85 19.55a.59.59 0 0 1 -.29.07zm-32.82-20.05 32.86 19 32.85-19-32.89-18.97z" fill="#231f20"/><path d="m92.04 210.01-25.02-14.44 25.02-14.44 25.01 14.44z" fill="#d1d3d4"/><path d="m92 210.53a.59.59 0 0 1 -.26-.07l-24.97-14.46a.51.51 0 0 1 -.26-.45.54.54 0 0 1 .26-.45l25-14.44a.52.52 0 0 1 .51 0l25 14.44a.53.53 0 0 1 .25.45.5.5 0 0 1 -.25.45l-25 14.44a.55.55 0 0 1 -.28.09zm-24-15 24 13.85 24-13.85-24-13.8z" fill="#fff"/><path d="m92.04 210.27-33.86-19.54v-9.08l33.86 19.54z" fill="#fff"/><path d="m92 210.77a.51.51 0 0 1 -.25-.06l-33.82-19.55a.5.5 0 0 1 -.25-.43v-9.08a.52.52 0 0 1 .25-.44.5.5 0 0 1 .5 0l33.86 19.55a.49.49 0 0 1 .25.43v9.08a.52.52 0 0 1 -.25.44.57.57 0 0 1 -.29.06zm-33.32-20.33 32.86 19v-7.93l-32.86-19z" fill="#231f20"/><path d="m125.89 190.75-33.85 19.49v-9.08l33.85-19.49z" fill="#fff"/><path d="m92 210.74a.51.51 0 0 1 -.25-.06.5.5 0 0 1 -.25-.44v-9.08a.48.48 0 0 1 .25-.43l33.85-19.49a.5.5 0 0 1 .5 0 .48.48 0 0 1 .25.43v9.08a.5.5 0 0 1 -.25.44l-33.81 19.49a.57.57 0 0 1 -.29.06zm.5-9.29v7.93l32.85-18.92v-7.93z" fill="#231f20"/><path d="m92.04 201.19-33.86-19.54 33.86-19.55 33.85 19.55z" fill="#231f20"/><path d="m92 201.69a.51.51 0 0 1 -.25-.06l-33.82-19.55a.5.5 0 0 1 -.25-.43.52.52 0 0 1 .25-.44l33.86-19.54a.5.5 0 0 1 .5 0l33.85 19.54a.5.5 0 0 1 .25.44.48.48 0 0 1 -.25.43l-33.85 19.55a.57.57 0 0 1 -.29.06zm-32.86-20 32.86 19 32.85-19-32.85-19.01z" fill="#231f20"/><path d="m92.04 196.09-25.02-14.44 25.02-14.44 25.01 14.44z" fill="#d1d3d4"/><path d="m92 196.6a.48.48 0 0 1 -.26-.07l-25-14.44a.51.51 0 0 1 0-.89l25-14.44a.52.52 0 0 1 .51 0l25 14.44a.52.52 0 0 1 0 .89l-25 14.44a.45.45 0 0 1 -.25.07zm-24-14.95 24 13.84 24-13.84-24-13.85z" fill="#fff"/><path d="m92.04 196.35-33.86-19.54v-9.09l33.86 19.54z" fill="#fff"/><path d="m92 196.85a.43.43 0 0 1 -.25-.07l-33.82-19.54a.5.5 0 0 1 -.25-.43v-9.09a.5.5 0 0 1 .25-.43.5.5 0 0 1 .5 0l33.86 19.54a.5.5 0 0 1 .25.43v9.09a.5.5 0 0 1 -.25.43.47.47 0 0 1 -.29.07zm-33.32-20.33 32.86 19v-7.93l-32.86-19z" fill="#231f20"/><path d="m125.89 176.83-33.85 19.49v-9.08l33.85-19.49z" fill="#fff"/><path d="m92 196.82a.43.43 0 0 1 -.25-.07.48.48 0 0 1 -.25-.43v-9.08a.5.5 0 0 1 .25-.44l33.85-19.49a.5.5 0 0 1 .75.43v9.09a.48.48 0 0 1 -.25.43l-33.81 19.49a.47.47 0 0 1 -.29.07zm.5-9.3v7.93l32.85-18.91v-7.93z" fill="#231f20"/><path d="m92.04 187.27-33.86-19.55 33.86-19.54 33.85 19.54z" fill="#fff"/><path d="m92 187.77a.43.43 0 0 1 -.25-.07l-33.82-19.54a.52.52 0 0 1 -.25-.44.5.5 0 0 1 .25-.43l33.86-19.55a.5.5 0 0 1 .5 0l33.85 19.55a.48.48 0 0 1 .25.43.5.5 0 0 1 -.25.44l-33.85 19.54a.47.47 0 0 1 -.29.07zm-32.82-20.05 32.86 19 32.85-19-32.89-18.97z" fill="#231f20"/><g fill="#d1d3d4"><path d="m92 182.68a.48.48 0 0 1 -.26-.07l-25-14.44a.51.51 0 0 1 0-.89l25-14.45a.52.52 0 0 1 .51 0l25 14.45a.52.52 0 0 1 0 .89l-25 14.44a.45.45 0 0 1 -.25.07zm-24-15 24 13.85 24-13.85-24-13.8z"/><ellipse cx="69.13" cy="178.33" rx=".75" ry="1.3" transform="matrix(.8660254 -.5 .5 .8660254 -79.9 58.46)"/><ellipse cx="65.38" cy="176.16" rx=".75" ry="1.3" transform="matrix(.8660254 -.5 .5 .8660254 -79.32 56.29)"/><ellipse cx="61.63" cy="173.99" rx=".75" ry="1.3" transform="matrix(.8660254 -.5 .5 .8660254 -78.74 54.13)"/><ellipse cx="278.15" cy="151.97" rx=".87" ry="1.5" transform="matrix(.8660254 -.5 .5 .8660254 -38.72 159.44)"/><ellipse cx="273.82" cy="149.47" rx=".87" ry="1.5" transform="matrix(.8660254 -.5 .5 .8660254 -38.05 156.94)"/><ellipse cx="269.48" cy="146.96" rx=".87" ry="1.5" transform="matrix(.87 -.5 .5 .87 -37.38 154.43)"/><path d="m267 252.28a.48.48 0 0 1 -.26-.07l-38.85-22.89a.51.51 0 0 1 -.19-.7.53.53 0 0 1 .71-.19l38.85 22.89a.51.51 0 0 1 -.26 1z"/></g><path d="m254.12 249v6.55c0 3.19 2.11 6.39 6.33 8.82 8.44 4.88 22.12 4.88 30.56 0 4.22-2.43 6.33-5.63 6.33-8.82v-6.55z" fill="#fff"/><path d="m275.73 268.49a31.76 31.76 0 0 1 -15.53-3.7c-4.24-2.45-6.58-5.74-6.58-9.26v-6.53a.5.5 0 0 1 .5-.5h43.22a.5.5 0 0 1 .5.5v6.55c0 3.52-2.34 6.81-6.58 9.26a31.78 31.78 0 0 1 -15.53 3.68zm-21.11-19v6.05c0 3.15 2.16 6.13 6.08 8.39 8.29 4.79 21.77 4.79 30.06 0 3.92-2.26 6.08-5.24 6.08-8.39v-6.05z" fill="#231f20"/><ellipse cx="275.73" cy="248.07" fill="#fff" rx="21.61" ry="12.48"/><path d="m275.73 261a31.76 31.76 0 0 1 -15.53-3.7c-4.24-2.45-6.58-5.74-6.58-9.26s2.34-6.81 6.58-9.26c8.56-4.94 22.5-4.94 31.06 0 4.24 2.45 6.58 5.74 6.58 9.26s-2.34 6.81-6.58 9.26a31.78 31.78 0 0 1 -15.53 3.7zm0-24.94a30.76 30.76 0 0 0 -15 3.59c-3.92 2.26-6.08 5.24-6.08 8.39s2.16 6.13 6.08 8.39c8.29 4.79 21.77 4.78 30.06 0 3.92-2.26 6.08-5.24 6.08-8.39s-2.16-6.13-6.08-8.39a30.76 30.76 0 0 0 -15.06-3.56z" fill="#231f20"/><ellipse cx="275.73" cy="248.07" fill="#fff" rx="15.28" ry="8.82"/><path d="m275.73 257.4a22.51 22.51 0 0 1 -11.06-2.65c-3.06-1.76-4.74-4.13-4.74-6.68s1.68-4.92 4.74-6.69c6.1-3.52 16-3.52 22.12 0 3 1.77 4.74 4.14 4.74 6.69s-1.68 4.92-4.74 6.68a22.51 22.51 0 0 1 -11.06 2.65zm0-17.64a21.57 21.57 0 0 0 -10.55 2.52c-2.72 1.57-4.22 3.63-4.22 5.79s1.5 4.22 4.22 5.79c5.82 3.36 15.28 3.36 21.1 0 2.72-1.57 4.21-3.63 4.21-5.79s-1.49-4.22-4.21-5.79a21.57 21.57 0 0 0 -10.55-2.52z" fill="#d1d3d4"/><path d="m199.5 251.82-60.47-34.9v-16.23l60.47 34.9z" fill="#fff"/><path d="m199.5 252.32a.47.47 0 0 1 -.25-.07l-60.47-34.9a.52.52 0 0 1 -.25-.43v-16.23a.5.5 0 0 1 .25-.43.5.5 0 0 1 .5 0l60.47 34.9a.5.5 0 0 1 .25.43v16.23a.48.48 0 0 1 -.25.43.45.45 0 0 1 -.25.07zm-60-35.69 59.5 34.37v-15.12l-59.47-34.32z" fill="#231f20"/><path d="m259.97 216.96-60.47 34.81v-16.23l60.47-34.81z" fill="#fff"/><path d="m199.5 252.27a.47.47 0 0 1 -.25-.07.5.5 0 0 1 -.25-.43v-16.23a.5.5 0 0 1 .25-.43l60.47-34.81a.5.5 0 0 1 .5 0 .48.48 0 0 1 .25.43v16.27a.5.5 0 0 1 -.25.43l-60.47 34.77a.45.45 0 0 1 -.25.07zm.5-16.44v15.07l59.47-34.23v-15.08z" fill="#231f20"/><path d="m199.5 235.6-60.47-34.91 60.47-34.91 60.47 34.91z" fill="#fff"/><path d="m199.5 236.1a.57.57 0 0 1 -.25-.06l-60.47-34.92a.49.49 0 0 1 0-.86l60.47-34.92a.55.55 0 0 1 .5 0l60.47 34.92a.49.49 0 0 1 0 .86l-60.47 34.88a.54.54 0 0 1 -.25.1zm-59.5-35.41 59.5 34.31 59.5-34.31-59.5-34.34z" fill="#231f20"/><ellipse cx="199.5" cy="200.69" fill="#fff" rx="36" ry="20.78"/><path d="m199.5 222c-9.31 0-18.62-2-25.71-6.14s-10.8-9.4-10.8-15.14 3.83-11.12 10.8-15.14c14.18-8.19 37.25-8.19 51.42 0 7 4 10.81 9.4 10.81 15.14s-3.84 11.12-10.81 15.14-16.4 6.14-25.71 6.14zm0-41.55c-9.12 0-18.25 2-25.2 6-6.63 3.83-10.28 8.89-10.28 14.25s3.65 10.42 10.28 14.25c13.9 8 36.5 8 50.4 0 6.63-3.83 10.28-8.89 10.28-14.25s-3.65-10.42-10.28-14.25c-6.95-4.02-16.07-6.03-25.2-6.03z" fill="#d1d3d4"/><path d="m238.31 224.71-15.42 8.89v-5.81l15.42-8.9z" fill="#fff"/><path d="m222.89 234.12a.48.48 0 0 1 -.26-.07.5.5 0 0 1 -.25-.45v-5.81a.5.5 0 0 1 .25-.44l15.42-8.9a.47.47 0 0 1 .51 0 .51.51 0 0 1 .26.44v5.82a.51.51 0 0 1 -.26.44l-15.41 8.9a.48.48 0 0 1 -.26.07zm.52-6v4.62l14.38-8.3v-4.62z" fill="#d1d3d4"/><ellipse cx="159.5" cy="220.9" fill="#d1d3d4" rx="1.38" ry="2.4" transform="matrix(.8660254 -.5 .5 .8660254 -89.08 109.34)"/><ellipse cx="152.58" cy="216.91" fill="#d1d3d4" rx="1.38" ry="2.4" transform="matrix(.8660254 -.5 .5 .8660254 -88.01 105.35)"/><ellipse cx="145.66" cy="212.92" fill="#d1d3d4" rx="1.38" ry="2.4" transform="matrix(.8660254 -.5 .5 .8660254 -86.94 101.36)"/><path d="m146.36 111.57 53.4-26.74 53.88 28.43-53.64 34.92z" fill="#231f20"/><path d="m200 148.68a.47.47 0 0 1 -.28-.09l-53.64-36.59a.5.5 0 0 1 -.22-.45.51.51 0 0 1 .28-.41l53.4-26.75a.53.53 0 0 1 .46 0l53.87 28.44a.49.49 0 0 1 .27.42.52.52 0 0 1 -.23.44l-53.64 34.91a.53.53 0 0 1 -.27.08zm-52.65-37 52.65 35.9 52.64-34.27-52.88-27.92z" fill="#231f20"/><path d="m199.76 26.82v107.56l52.47-35.48z" fill="#68e1fd"/><path d="m199.76 134.88a.46.46 0 0 1 -.23-.06.5.5 0 0 1 -.27-.44v-107.56a.5.5 0 0 1 .35-.47.49.49 0 0 1 .56.18l52.46 72.08a.48.48 0 0 1 .09.38.52.52 0 0 1 -.21.33l-52.51 35.47a.47.47 0 0 1 -.24.09zm.5-106.52v105.08l51.26-34.66z" fill="#231f20"/><path d="m199.76 26.82-53.4 72.08 53.4 35.48z" fill="#68e1fd"/><path d="m199.76 134.88a.53.53 0 0 1 -.27-.08l-53.4-35.48a.49.49 0 0 1 -.22-.33.51.51 0 0 1 .09-.38l53.4-72.08a.49.49 0 0 1 .56-.18.51.51 0 0 1 .34.47v107.56a.51.51 0 0 1 -.26.44.53.53 0 0 1 -.24.06zm-52.68-36.1 52.18 34.67v-105.11z" fill="#231f20"/><path d="m146.36 111.57 53.4 74.62v-38.01z" fill="#68e1fd"/><path d="m199.76 186.69a.49.49 0 0 1 -.4-.21l-53.36-74.62a.49.49 0 0 1 0-.64.5.5 0 0 1 .64-.06l53.4 36.6a.53.53 0 0 1 .21.42v38a.5.5 0 0 1 -.34.47.45.45 0 0 1 -.15.04zm-51.34-73.1 50.84 71v-36.15z" fill="#231f20"/><path d="m199.76 186.19 53.88-72.93-53.88 34.92z" fill="#68e1fd"/><path d="m199.76 186.69a.4.4 0 0 1 -.15 0 .5.5 0 0 1 -.35-.47v-38a.5.5 0 0 1 .23-.42l53.88-34.92a.49.49 0 0 1 .63.08.5.5 0 0 1 0 .64l-53.87 72.92a.52.52 0 0 1 -.37.17zm.5-38.24v36.22l51.34-69.49z" fill="#231f20"/><path d="m72.26 144.2 19.69-9.86 19.86 10.48-19.77 12.87z" fill="#231f20"/><path d="m92 158.2a.52.52 0 0 1 -.29-.09l-19.71-13.5a.5.5 0 0 1 -.22-.44.5.5 0 0 1 .28-.42l19.69-9.86a.51.51 0 0 1 .45 0l19.87 10.49a.51.51 0 0 1 0 .86l-19.76 12.87a.46.46 0 0 1 -.31.09zm-18.8-13.93 18.8 12.82 18.79-12.22-18.89-10z" fill="#231f20"/><path d="m91.95 112.95v39.66l19.34-13.08z" fill="#68e1fd"/><path d="m92 153.11a.53.53 0 0 1 -.24-.06.51.51 0 0 1 -.26-.44v-39.61a.5.5 0 0 1 .9-.29l19.35 26.57a.52.52 0 0 1 .09.38.48.48 0 0 1 -.22.33l-19.39 13.01a.47.47 0 0 1 -.23.11zm.5-38.62v37.18l18.14-12.27z" fill="#231f20"/><path d="m91.95 112.95-19.69 26.58 19.69 13.08z" fill="#68e1fd"/><path d="m92 153.11a.49.49 0 0 1 -.28-.09l-19.72-13.08a.47.47 0 0 1 -.21-.33.48.48 0 0 1 .09-.38l19.69-26.58a.5.5 0 0 1 .9.3v39.66a.51.51 0 0 1 -.26.44.53.53 0 0 1 -.21.06zm-19-13.71 18.48 12.28v-37.21z" fill="#231f20"/><path d="m72.26 144.2 19.69 27.51v-14.02z" fill="#68e1fd"/><path d="m92 172.21a.49.49 0 0 1 -.41-.21l-19.74-27.51a.5.5 0 0 1 .69-.7l19.69 13.49a.51.51 0 0 1 .22.42v14a.5.5 0 0 1 -.35.48zm-17.63-26 17.13 23.93v-12.14z" fill="#231f20"/><path d="m91.95 171.71 19.86-26.89-19.86 12.87z" fill="#68e1fd"/><path d="m92 172.21h-.16a.51.51 0 0 1 -.34-.48v-14a.5.5 0 0 1 .23-.42l19.86-12.88a.5.5 0 0 1 .64.08.51.51 0 0 1 0 .64l-19.88 26.85a.49.49 0 0 1 -.35.21zm.5-14.24v12.22l17.33-23.45z" fill="#231f20"/><path d="m280.17 102.26 23.45-11.75 23.65 12.49-23.55 15.33z" fill="#231f20"/><path d="m303.72 118.83a.49.49 0 0 1 -.28-.09l-23.55-16.07a.5.5 0 0 1 .06-.86l23.44-11.75a.53.53 0 0 1 .46 0l23.66 12.49a.49.49 0 0 1 .26.42.5.5 0 0 1 -.22.44l-23.55 15.34a.57.57 0 0 1 -.28.08zm-22.57-16.51 22.58 15.41 22.56-14.73-22.68-12z" fill="#231f20"/><path d="m303.62 65.04v47.23l23.04-15.58z" fill="#68e1fd"/><path d="m303.62 112.77a.53.53 0 0 1 -.24-.06.49.49 0 0 1 -.26-.44v-47.27a.5.5 0 0 1 .9-.29l23 31.65a.52.52 0 0 1 .09.38.56.56 0 0 1 -.21.33l-23 15.58a.57.57 0 0 1 -.28.12zm.5-46.19v44.75l21.88-14.76z" fill="#231f20"/><path d="m303.62 65.04-23.45 31.65 23.45 15.58z" fill="#68e1fd"/><path d="m303.62 112.77a.54.54 0 0 1 -.28-.08l-23.45-15.58a.49.49 0 0 1 -.21-.33.48.48 0 0 1 .09-.38l23.45-31.65a.47.47 0 0 1 .55-.18.5.5 0 0 1 .35.47v47.23a.48.48 0 0 1 -.27.44.46.46 0 0 1 -.23.06zm-22.74-16.2 22.24 14.77v-44.78z" fill="#231f20"/><path d="m280.17 102.26 23.45 32.76v-16.69z" fill="#68e1fd"/><path d="m303.62 135.52a.52.52 0 0 1 -.41-.21l-23.45-32.76a.5.5 0 0 1 .69-.71l23.45 16.08a.48.48 0 0 1 .22.41v16.67a.5.5 0 0 1 -.35.48zm-21.39-31.25 20.89 29.19v-14.87z" fill="#231f20"/><path d="m303.62 135.02 23.65-32.02-23.65 15.33z" fill="#68e1fd"/><path d="m303.62 135.52h-.16a.51.51 0 0 1 -.34-.48v-16.71a.48.48 0 0 1 .23-.42l23.65-15.33a.5.5 0 0 1 .64.08.51.51 0 0 1 0 .64l-23.66 32a.51.51 0 0 1 -.36.22zm.5-16.92v14.9l21.12-28.58z" fill="#231f20"/></svg>